<?xml version="1.0" encoding="utf-8"?>
<!-- Generator: Adobe Illustrator 26.5.0, SVG Export Plug-In . SVG Version: 6.00 Build 0)  -->
<svg version="1.1" id="Capa_1" xmlns="http://www.w3.org/2000/svg" xmlns:xlink="http://www.w3.org/1999/xlink" x="0px" y="0px"
	 viewBox="0 0 768 768" style="enable-background:new 0 0 768 768;" xml:space="preserve">
<style type="text/css">
	.st0{fill:#FFFFFF;}
	.st1{fill:none;}
	.st2{fill:none;stroke:#D30909;stroke-width:8;stroke-miterlimit:10;}
	.st3{fill:none;stroke:#000000;stroke-miterlimit:10;}
	.st4{fill:#3FFA00;}
	.st5{fill:#5D74A6;}
	.st6{fill:#062F6E;}
	.st7{fill:#273159;}
</style>
<g>
	<g>
		<path class="st6" d="M61.84,425.33h31.81c19.27,0,30.9,10.95,30.9,28.62c0,17.33-11.63,28.62-30.9,28.62h-12.2v22.58H61.84V425.33
			z M91.59,466.38c8.32,0,13.23-4.56,13.23-12.2c0-7.75-4.9-12.2-13.23-12.2H81.11v24.4H91.59z"/>
		<path class="st6" d="M134.92,425.33h33.52c18.47,0,30.56,10.83,30.56,27.02c0,11.4-5.47,19.84-15.16,24.06l17.67,28.73h-21.32
			l-15.05-25.77h-10.6v25.77h-19.61V425.33z M166.5,464.55c8.32,0,12.88-4.22,12.88-11.52s-4.56-11.63-12.88-11.63h-12.31v23.14
			H166.5z"/>
		<path class="st6" d="M236.74,425.33h20.98l30.56,79.81h-20.18l-5.02-13.91h-31.7l-5.02,13.91h-20.52L236.74,425.33z
			 M258.86,477.09l-11.52-31.81l-11.74,31.81H258.86z"/>
		<path class="st6" d="M289.31,465.24c0-23.26,15.96-41.39,40.7-41.39c13,0,24.4,5.25,33.75,15.85l-11.97,12.54
			c-5.36-6.73-12.54-10.49-20.52-10.49c-13.11,0-21.89,9.69-21.89,23.49c0,13.91,8.78,23.49,22.23,23.49
			c9.01,0,16.3-3.99,21.89-11.06l11.97,12.54c-8.89,11.4-21.78,16.42-35.12,16.42C305.5,506.62,289.31,489.07,289.31,465.24z"/>
		<path class="st6" d="M392.04,443.35h-23.15v-18.01h66.01v18.01h-23.26v61.8h-19.61V443.35z"/>
		<path class="st6" d="M445.63,425.33h19.61v79.81h-19.61V425.33z"/>
		<path class="st5" d="M481.43,425.33h31.81c19.27,0,30.9,10.95,30.9,28.62c0,17.33-11.63,28.62-30.9,28.62h-12.2v22.58h-19.61
			V425.33z M511.19,466.38c8.32,0,13.23-4.56,13.23-12.2c0-7.75-4.9-12.2-13.23-12.2H500.7v24.4H511.19z"/>
		<path class="st5" d="M554.52,425.33h33.52c18.47,0,30.56,10.83,30.56,27.02c0,11.4-5.47,19.84-15.16,24.06l17.67,28.73h-21.32
			l-15.05-25.77h-10.6v25.77h-19.61V425.33z M586.1,464.55c8.32,0,12.88-4.22,12.88-11.52s-4.56-11.63-12.88-11.63h-12.31v23.14
			H586.1z"/>
		<path class="st5" d="M626.58,465.24c0-23.94,18.01-41.39,42.53-41.39c24.74,0,42.53,17.44,42.53,41.39
			c0,23.94-17.79,41.39-42.53,41.39C644.59,506.62,626.58,489.18,626.58,465.24z M669.1,488.72c13.22,0,22.57-9.69,22.57-23.49
			c0-13.79-9.35-23.49-22.57-23.49c-13.11,0-22.46,9.69-22.46,23.49C646.64,479.03,655.99,488.72,669.1,488.72z"/>
	</g>
	<g>
		<polygon class="st5" points="339.83,383.38 361.25,404.8 361.25,280.61 339.83,259.27 		"/>
		<polygon class="st6" points="309.83,383.36 331.25,404.8 331.25,244.58 309.83,223.29 		"/>
		<path class="st5" d="M352.05,259.27h52.05c14.48,3.58,24.22,16.93,23.22,31.07c-0.89,12.7-10.29,23.16-23.22,26.29
			c-12.59,0-21.67,0-34.26,0v-21.38h27.72c5.03,0.13,8.69-4.18,8.18-8.18c-0.44-3.44-5.12-6.59-9.37-6.38c-10.41,0-12.49,0-22.9,0
			L352.05,259.27z"/>
		<path class="st6" d="M343.49,244.73l-21.45-21.44h82.06c33.13,3.28,58.71,30.87,59.52,63.45c0.84,33.76-25.16,63.3-59.52,66.72
			c-9.05,0-25.22,0-34.26,0v-21.42h34.26c23.63-3.85,40.09-25.01,38.26-47.26c-1.62-19.79-17.41-36.64-38.26-39.89
			C377.5,244.78,370.09,244.84,343.49,244.73z"/>
	</g>
</g>
</svg>
