<?xml version="1.0" encoding="utf-8"?>
<!-- Generator: Adobe Illustrator 26.5.0, SVG Export Plug-In . SVG Version: 6.00 Build 0)  -->
<svg version="1.1" id="Capa_1" xmlns="http://www.w3.org/2000/svg" xmlns:xlink="http://www.w3.org/1999/xlink" x="0px" y="0px"
	 viewBox="0 0 768 768" style="enable-background:new 0 0 768 768;" xml:space="preserve">
<style type="text/css">
	.st0{fill:#FFFFFF;}
	.st1{fill:none;}
	.st2{fill:none;stroke:#D30909;stroke-width:8;stroke-miterlimit:10;}
	.st3{fill:none;stroke:#000000;stroke-miterlimit:10;}
	.st4{fill:#3FFA00;}
	.st5{fill:#5D74A6;}
	.st6{fill:#062F6E;}
	.st7{fill:#273159;}
</style>
<g>
	<g>
		<polygon class="st5" points="256.22,572.9 314.58,631.25 314.58,292.89 256.22,234.76 		"/>
		<polygon class="st6" points="174.49,572.84 232.85,631.25 232.85,194.74 174.49,136.75 		"/>
		<path class="st5" d="M289.49,234.76H431.3c39.44,9.76,65.97,46.13,63.26,84.65c-2.44,34.61-28.04,63.09-63.26,71.61
			c-34.3,0-59.05,0-93.35,0v-58.25h75.53c13.7,0.36,23.66-11.38,22.28-22.28c-1.19-9.38-13.96-17.96-25.52-17.37
			c-28.36,0-34.02,0-62.38,0L289.49,234.76z"/>
		<path class="st6" d="M266.17,195.15l-58.43-58.4H431.3c90.27,8.93,159.96,84.11,162.16,172.85
			c2.28,91.97-68.55,172.45-162.16,181.76c-24.65,0-68.7,0-93.35,0v-58.36h93.35c64.37-10.48,109.22-68.15,104.25-128.75
			c-4.42-53.91-47.43-99.83-104.25-108.67C358.83,195.28,338.64,195.46,266.17,195.15z"/>
	</g>
</g>
</svg>
