<?xml version="1.0" encoding="UTF-8"?>
<svg id="Capa_1" data-name="Capa 1" xmlns="http://www.w3.org/2000/svg" viewBox="0 0 768 768">
  <defs>
    <style>
      .cls-1 {
        fill: none;
        stroke: #5d74a6;
        stroke-miterlimit: 10;
      }

      .cls-2 {
        fill: #062f6e;
      }

      .cls-3 {
        fill: #5d74a6;
      }
    </style>
  </defs>
  <g>
    <polygon class="cls-3" points="256.22 572.9 314.58 631.25 314.58 292.89 256.22 234.76 256.22 572.9"/>
    <polygon class="cls-2" points="174.49 572.84 232.85 631.25 232.85 194.74 174.49 136.75 174.49 572.84"/>
    <path class="cls-3" d="M289.49,234.76h141.81c39.44,9.76,65.97,46.13,63.26,84.65-2.44,34.61-28.04,63.09-63.26,71.61h-93.35v-58.25s75.53,0,75.53,0c13.7,.36,23.66-11.38,22.28-22.28-1.19-9.38-13.96-17.96-25.52-17.37h-62.38l-58.36-58.36Z"/>
    <path class="cls-2" d="M266.17,195.15l-58.43-58.4h223.55c90.27,8.93,159.96,84.11,162.16,172.85,2.28,91.97-68.55,172.45-162.16,181.76h-93.35v-58.36h93.35c64.37-10.48,109.22-68.15,104.25-128.75-4.42-53.91-47.43-99.83-104.25-108.67-72.47-.31-92.66-.13-165.13-.44Z"/>
  </g>
  <rect class="cls-1" x="0" width="768" height="768"/>
</svg>