<?xml version="1.0" encoding="UTF-8"?>
<svg id="Capa_1" data-name="Capa 1" xmlns="http://www.w3.org/2000/svg" viewBox="0 0 768 768">
  <defs>
    <style>
      .cls-1 {
        fill: none;
        stroke: #5d74a6;
        stroke-miterlimit: 10;
      }

      .cls-2 {
        fill: #062f6e;
      }

      .cls-3 {
        fill: #5d74a6;
      }
    </style>
  </defs>
  <g>
    <g>
      <path class="cls-2" d="M61.84,425.33h31.81c19.27,0,30.9,10.95,30.9,28.62s-11.63,28.62-30.9,28.62h-12.2v22.58h-19.61v-79.81Zm29.76,41.04c8.32,0,13.23-4.56,13.23-12.2s-4.9-12.2-13.23-12.2h-10.49v24.4h10.49Z"/>
      <path class="cls-2" d="M134.92,425.33h33.52c18.47,0,30.56,10.83,30.56,27.02,0,11.4-5.47,19.84-15.16,24.06l17.67,28.73h-21.32l-15.05-25.77h-10.6v25.77h-19.61v-79.81Zm31.58,39.22c8.32,0,12.88-4.22,12.88-11.52s-4.56-11.63-12.88-11.63h-12.31v23.14h12.31Z"/>
      <path class="cls-2" d="M236.74,425.33h20.98l30.56,79.81h-20.18l-5.02-13.91h-31.7l-5.02,13.91h-20.52l30.9-79.81Zm22.12,51.76l-11.52-31.81-11.74,31.81h23.26Z"/>
      <path class="cls-2" d="M289.31,465.24c0-23.26,15.96-41.39,40.7-41.39,13,0,24.4,5.25,33.75,15.85l-11.97,12.54c-5.36-6.73-12.54-10.49-20.52-10.49-13.11,0-21.89,9.69-21.89,23.49s8.78,23.49,22.23,23.49c9.01,0,16.3-3.99,21.89-11.06l11.97,12.54c-8.89,11.4-21.78,16.42-35.12,16.42-24.86,0-41.04-17.56-41.04-41.39Z"/>
      <path class="cls-2" d="M392.04,443.35h-23.15v-18.01h66.01v18.01h-23.26v61.8h-19.61v-61.8Z"/>
      <path class="cls-2" d="M445.63,425.33h19.61v79.81h-19.61v-79.81Z"/>
      <path class="cls-3" d="M481.43,425.33h31.81c19.27,0,30.9,10.95,30.9,28.62s-11.63,28.62-30.9,28.62h-12.2v22.58h-19.61v-79.81Zm29.76,41.04c8.32,0,13.23-4.56,13.23-12.2s-4.9-12.2-13.23-12.2h-10.49v24.4h10.49Z"/>
      <path class="cls-3" d="M554.52,425.33h33.52c18.47,0,30.56,10.83,30.56,27.02,0,11.4-5.47,19.84-15.16,24.06l17.67,28.73h-21.32l-15.05-25.77h-10.6v25.77h-19.61v-79.81Zm31.58,39.22c8.32,0,12.88-4.22,12.88-11.52s-4.56-11.63-12.88-11.63h-12.31v23.14h12.31Z"/>
      <path class="cls-3" d="M626.58,465.24c0-23.94,18.01-41.39,42.53-41.39s42.53,17.44,42.53,41.39-17.79,41.39-42.53,41.39-42.53-17.44-42.53-41.39Zm42.53,23.49c13.22,0,22.57-9.69,22.57-23.49s-9.35-23.49-22.57-23.49-22.46,9.69-22.46,23.49,9.35,23.49,22.46,23.49Z"/>
    </g>
    <g>
      <polygon class="cls-3" points="339.83 383.38 361.25 404.8 361.25 280.61 339.83 259.27 339.83 383.38"/>
      <polygon class="cls-2" points="309.83 383.36 331.25 404.8 331.25 244.58 309.83 223.29 309.83 383.36"/>
      <path class="cls-3" d="M352.05,259.27h52.05c14.48,3.58,24.22,16.93,23.22,31.07-.89,12.7-10.29,23.16-23.22,26.29h-34.26v-21.38s27.72,0,27.72,0c5.03,.13,8.69-4.18,8.18-8.18-.44-3.44-5.12-6.59-9.37-6.38h-22.9l-21.42-21.42Z"/>
      <path class="cls-2" d="M343.49,244.73l-21.45-21.44h82.06c33.13,3.28,58.71,30.87,59.52,63.45,.84,33.76-25.16,63.3-59.52,66.72h-34.26v-21.42h34.26c23.63-3.85,40.09-25.01,38.26-47.26-1.62-19.79-17.41-36.64-38.26-39.89-26.6-.11-34.01-.05-60.61-.16Z"/>
    </g>
  </g>
  <rect class="cls-1" x="0" width="768" height="768"/>
</svg>